<?xml version="1.0" encoding="UTF-8"?>
<svg width="113px" height="16px" viewBox="0 0 113 16" version="1.1" xmlns="http://www.w3.org/2000/svg" xmlns:xlink="http://www.w3.org/1999/xlink">
    <!-- Generator: Sketch 57.1 (83088) - https://sketch.com -->
    <title>LOGO</title>
    <desc>Created with Sketch.</desc>
    <g id="Page-1" stroke="none" stroke-width="1" fill="none" fill-rule="evenodd">
        <g id="Desktop-HD" transform="translate(-80.000000, -19.000000)">
            <g id="NAV-DESKTOP">
                <g id="LOGO" transform="translate(80.000000, 19.000000)">
                    <path d="M93.5670321,0.0688855771 L112.262295,0.0688855771 L112.262295,4.64212269 L105.509926,4.64212269 L105.509926,15.8031064 L100.317889,15.8031064 L100.317889,4.64212269 L93.5670321,4.64212269 L93.5670321,0.0688855771 Z M71.4842449,0.14405384 C71.4948285,0.0951944691 71.5190197,0.0688855771 71.5598424,0.0688855771 L86.2181986,0.0688855771 C87.7120053,0.0688855771 89.0687285,0.714079833 90.2883683,2.00446835 C90.8387181,2.77719809 91.113893,3.53965483 91.113893,4.29183858 L91.113893,15.7301931 C91.1172252,15.746842 91.1137572,15.764125 91.1042545,15.7782277 C91.0947518,15.7923303 91.0799956,15.8020931 91.0632427,15.8053614 C91.0549949,15.8068565 91.0465433,15.8068565 91.0382955,15.8053614 L86.1123621,15.8053614 C86.0956181,15.8086747 86.0782364,15.8052264 86.0640533,15.7957776 C86.0498701,15.7863289 86.0400516,15.7716564 86.0367646,15.7549987 C86.0352442,15.7467993 86.0352442,15.7383926 86.0367646,15.7301931 L86.0367646,7.46168423 C86.0367646,6.0740781 85.4370244,5.1698039 84.237544,4.74886162 C83.9831703,4.6844904 83.7220966,4.64992867 83.4596456,4.6458811 L76.5454978,4.6458811 L76.5454978,15.7301931 C76.5519295,15.7652642 76.5285933,15.7988927 76.4933355,15.8053614 C76.4855967,15.8068616 76.4776392,15.8068616 76.4699003,15.8053614 L71.5560625,15.8053614 C71.5207911,15.8117566 71.4869706,15.7885529 71.480465,15.7534953 C71.4789562,15.7458004 71.4789562,15.7378881 71.480465,15.7301931 L71.4842449,0.14405384 Z M63.1360124,0.0688855771 L68.3265371,0.0688855771 L68.3265371,15.8031064 L63.1360124,15.8031064 L63.1360124,0.0688855771 Z M44.1323115,0.0688855771 L49.3266161,0.0688855771 L49.3266161,11.2298692 L59.9858643,11.2298692 L59.9858643,15.8031064 L44.1323115,15.8031064 L44.1323115,0.0688855771 Z M28.3430166,0.0688855771 L34.2509616,0.0688855771 L41.6776605,15.8031064 L36.2346402,15.8031064 L35.2654802,13.7495094 L27.3277421,13.7495094 L26.3600941,15.8053614 L20.9170737,15.8053614 L28.3430166,0.0688855771 Z M0,9.65659751 L0,6.21614611 C0,1.68425155 2.70109886,0.0688855771 7.4478662,0.0688855771 L18.4616667,0.0688855771 L18.4616667,4.64212269 L7.44559828,4.64212269 C6.05309223,4.64212269 5.18825678,5.08260871 5.18825678,6.21539443 L5.18825678,9.65584582 C5.18825678,10.7886315 6.05309223,11.2291176 7.44559828,11.2291176 L13.2666062,11.2291176 L13.2666062,7.93599597 L18.4571309,7.93599597 L18.4571309,15.8031064 L7.44559828,15.8031064 C2.70109886,15.8031064 0,14.1877404 0,9.65659751 Z" id="Shape"></path>
                    <polygon id="Path" points="31.3446333 5.31478722 29.3770492 9.51150853 33.3114754 9.51150853"></polygon>
                    <path d="M18.3606557,7.93773804 L13.1985304,7.93773804 L13.1985304,11.2323407 L7.4048605,11.2323407 C6.0199734,11.2323407 5.1598698,10.7917571 5.1598698,9.65872058 L5.1598698,6.21750734 C5.1598698,5.08447078 6.0199734,4.64388722 7.4048605,4.64388722 L18.3606557,4.64388722 L18.3606557,0.0688855771 L7.4048605,0.0688855771 C2.68406457,0.0688855771 0,1.68460925 0,6.21750734 L0,9.65872058 C0,14.1908668 2.68632009,15.8065905 7.40711602,15.8065905 L18.3606557,15.8065905 L18.3606557,7.93773804 Z" id="Path" fill="#FFFFFF" fill-rule="nonzero"></path>
                    <polygon id="Path" fill="#FFFFFF" fill-rule="nonzero" points="59.8032787 11.2323407 49.2208735 11.2323407 49.2208735 0.0688855771 44.0655738 0.0688855771 44.0655738 15.8065905 59.8032787 15.8065905"></polygon>
                    <rect id="Rectangle" fill="#FFFFFF" fill-rule="nonzero" x="63.2131148" y="0.0688855771" width="5.24590164" height="15.7377049"></rect>
                    <polygon id="Path" fill="#FFFFFF" fill-rule="nonzero" points="100.36614 15.8065905 105.536253 15.8065905 105.536253 4.64388722 112.262295 4.64388722 112.262295 0.0688855771 93.6393443 0.0688855771 93.6393443 4.64388722 100.36614 4.64388722"></polygon>
                    <path d="M71.4118805,15.8031064 L76.3358278,15.8031064 C76.3711717,15.8095015 76.4050618,15.7862979 76.4115808,15.7512403 C76.4130927,15.7435453 76.4130927,15.735633 76.4115808,15.7279381 L76.4115808,4.64212269 L83.3414684,4.64212269 C83.6057284,4.64587686 83.8686276,4.68044085 84.1247548,4.74510321 C85.3261979,5.16504324 85.927172,6.06931744 85.927677,7.45792582 L85.927677,15.7301931 C85.924338,15.746842 85.9278131,15.764125 85.9373354,15.7782277 C85.9468576,15.7923303 85.9616442,15.8020931 85.9784315,15.8053614 C85.9866963,15.8068565 85.9951653,15.8068565 86.00343,15.8053614 L90.9394978,15.8053614 C90.9562762,15.8086747 90.9736936,15.8052264 90.987906,15.7957776 C91.0021183,15.7863289 91.0119571,15.7716564 91.0152508,15.7549987 C91.0167743,15.7467993 91.0167743,15.7383926 91.0152508,15.7301931 L91.0152508,4.29183858 C91.0152508,3.54015596 90.7395098,2.77769921 90.1880277,2.00446835 C88.9658787,0.714079833 87.6063642,0.0688855771 86.1094843,0.0688855771 L71.4209709,0.0688855771 C71.3815793,0.0688855771 71.3573384,0.0936911038 71.3452179,0.14405384 L71.3452179,15.7301931 C71.3421807,15.7475977 71.3464531,15.7654774 71.3570419,15.7796761 C71.3676306,15.7938748 71.3836135,15.8031557 71.4012751,15.8053614 L71.4118805,15.8031064 Z" id="Path" fill="#FFFFFF" fill-rule="nonzero"></path>
                    <path d="M27.3824357,13.7505779 L35.3045799,13.7505779 L36.2725905,15.8065905 L41.704918,15.8065905 L34.2920545,0.0688855771 L28.3957156,0.0688855771 L20.9836066,15.8043353 L26.4159341,15.8043353 L27.3824357,13.7505779 Z M31.3442623,5.35588241 L33.3451696,9.59420008 L29.346373,9.59420008 L31.3442623,5.35588241 Z" id="Shape" fill="#FFFFFF" fill-rule="nonzero"></path>
                </g>
            </g>
        </g>
    </g>
</svg>